# xmcd
#
# Track frame offsets: 
#        150
#        24394
#        42468
#        59490
#        79507
#        103412
#        118440
#        132901
#        158222
#
# Disc length: 2814 seconds
#
# Revision: 0
# Processed by: cddbd v1.5.2PL0 Copyright (c) Steve Scherf et al.
# Submitted via: ExactAudioCopy v0.99pb5
#
DISCID=7d0afc09
DTITLE=Knut Reiersrud - Himalaya Blues
DYEAR=2004
DGENRE=Ethnic
TTITLE0=Kuvisa/Gothald
TTITLE1=Morning Song/Byanchuli
TTITLE2=Mother Himalaya/Himali mata
TTITLE3=Sylvartun
TTITLE4=Shangri-La
TTITLE5=Loknes
TTITLE6=Ballad of the Sad Young Tigers/Jawan Bagha Kobyatha
TTITLE7=Golden tap/ Lunhiti
TTITLE8=Himalaya Blues (Around the jungle/Ban Bihar)
EXTD=
EXTT0=
EXTT1=
EXTT2=
EXTT3=
EXTT4=
EXTT5=
EXTT6=
EXTT7=
EXTT8=
PLAYORDER=
